<?xml version="1.0" encoding="UTF-8" standalone="no"?>
<svg
   xmlns:dc="http://purl.org/dc/elements/1.1/"
   xmlns:cc="http://creativecommons.org/ns#"
   xmlns:rdf="http://www.w3.org/1999/02/22-rdf-syntax-ns#"
   xmlns:svg="http://www.w3.org/2000/svg"
   xmlns="http://www.w3.org/2000/svg"
   xmlns:sodipodi="http://sodipodi.sourceforge.net/DTD/sodipodi-0.dtd"
   xmlns:inkscape="http://www.inkscape.org/namespaces/inkscape"
   version="1.1"
   x="0px"
   y="0px"
   viewBox="0 0 25 31.25"
   enable-background="new 0 0 25 25"
   xml:space="preserve"
   id="svg20"
   sodipodi:docname="noun_clock_555527.svg"
   inkscape:version="0.92.4 (5da689c313, 2019-01-14)"><metadata
     id="metadata26"><rdf:RDF><cc:Work
         rdf:about=""><dc:format>image/svg+xml</dc:format><dc:type
           rdf:resource="http://purl.org/dc/dcmitype/StillImage" /></cc:Work></rdf:RDF></metadata><defs
     id="defs24" /><sodipodi:namedview
     pagecolor="#ffffff"
     bordercolor="#666666"
     borderopacity="1"
     objecttolerance="10"
     gridtolerance="10"
     guidetolerance="10"
     inkscape:pageopacity="0"
     inkscape:pageshadow="2"
     inkscape:window-width="640"
     inkscape:window-height="480"
     id="namedview22"
     showgrid="false"
     inkscape:zoom="7.552"
     inkscape:cx="12.5"
     inkscape:cy="5.0317797"
     inkscape:window-x="0"
     inkscape:window-y="0"
     inkscape:window-maximized="0"
     inkscape:current-layer="svg20" /><path
     d="M12.5,24.455c-6.575,0-11.925-5.35-11.925-11.925S5.925,0.605,12.5,0.605s11.925,5.35,11.925,11.925  S19.075,24.455,12.5,24.455z M12.5,1.894c-5.865,0-10.637,4.771-10.637,10.637S6.635,23.166,12.5,23.166s10.636-4.771,10.636-10.636  S18.365,1.894,12.5,1.894z"
     id="path2"
     style="fill:#ffffff" /><path
     d="M3,13H2c-0.276,0-0.5-0.224-0.5-0.5S1.724,12,2,12h1c0.276,0,0.5,0.224,0.5,0.5S3.276,13,3,13z"
     id="path4"
     style="fill:#ffffff" /><path
     d="M23,13h-1c-0.276,0-0.5-0.224-0.5-0.5S21.724,12,22,12h1c0.276,0,0.5,0.224,0.5,0.5S23.276,13,23,13z"
     id="path6"
     style="fill:#ffffff" /><path
     d="M12,3V2c0-0.276,0.224-0.5,0.5-0.5S13,1.724,13,2v1c0,0.276-0.224,0.5-0.5,0.5S12,3.276,12,3z"
     id="path8"
     style="fill:#ffffff" /><path
     d="M12,23v-1c0-0.276,0.224-0.5,0.5-0.5S13,21.724,13,22v1c0,0.276-0.224,0.5-0.5,0.5S12,23.276,12,23z"
     id="path10"
     style="fill:#ffffff" /><path
     d="M16.924,17.79c-0.134,0-0.268-0.054-0.366-0.159l-4.424-4.76C12.048,12.778,12,12.657,12,12.53V9c0-0.276,0.224-0.5,0.5-0.5  S13,8.724,13,9v3.334l4.29,4.615c0.188,0.203,0.177,0.52-0.025,0.707C17.168,17.746,17.046,17.79,16.924,17.79z"
     id="path12"
     style="fill:#ffffff" /><circle
     cx="12.617"
     cy="12.499"
     r="1.014"
     id="circle14"
     style="fill:#ffffff" /><text
     x="0"
     y="40"
     fill="#000000"
     font-size="5px"
     font-weight="bold"
     font-family="'Helvetica Neue', Helvetica, Arial-Unicode, Arial, Sans-serif"
     id="text16"
     style="fill:#ffffff;">Created by Milka Dahan</text>
<text
     x="0"
     y="45"
     fill="#000000"
     font-size="5px"
     font-weight="bold"
     font-family="'Helvetica Neue', Helvetica, Arial-Unicode, Arial, Sans-serif"
     id="text18"
     style="fill:#ffffff;">from the Noun Project</text>
</svg>